<?xml version="1.0" encoding="UTF-8" standalone="no"?>
<svg width="13px" height="14px" viewBox="0 0 13 14" version="1.1" xmlns="http://www.w3.org/2000/svg" xmlns:xlink="http://www.w3.org/1999/xlink" xmlns:sketch="http://www.bohemiancoding.com/sketch/ns">
    <!-- Generator: Sketch 3.3 (11970) - http://www.bohemiancoding.com/sketch -->
    <title>Shape</title>
    <desc>Created with Sketch.</desc>
    <defs></defs>
    <g id="Page-1" stroke="none" stroke-width="1" fill="none" fill-rule="evenodd" sketch:type="MSPage">
        <g id="Desktop-HD" sketch:type="MSArtboardGroup" transform="translate(-664.000000, -465.000000)" fill="#8D8D96">
            <g id="content" sketch:type="MSLayerGroup" transform="translate(252.000000, -11.000000)">
                <g id="inputLine-Copy-3" transform="translate(0.000000, 453.000000)" sketch:type="MSShapeGroup">
                    <path d="M417,24 L417,23 L416,23 L416,24 L416,25 L417,25 L417,24 L417,24 Z M415,24 L415,23 L414,23 L414,24 L414,25 L415,25 L415,24 L415,24 Z M423,24 L423,23 L422,23 L422,24 L422,25 L423,25 L423,24 L423,24 Z M421,24 L421,23 L420,23 L420,24 L420,25 L421,25 L421,24 L421,24 Z M419,24 L419,23 L418,23 L418,24 L418,25 L419,25 L419,24 L419,24 Z M416,29 L416,30 L417,30 L417,34 L418,34 L418,29 L417,29 L416,29 L416,29 Z M419,29 L419,30 L420,30 L420,34 L421,34 L421,29 L420,29 L419,29 L419,29 Z M412,25 L412,26 L412,27 L412,36 L413,37 L424,37 L425,36 L425,27 L425,26 L425,25 L424,24 L424,25 L424,26 L423,26 L422,26 L421,26 L420,26 L419,26 L418,26 L417,26 L416,26 L415,26 L414,26 L413,26 L413,25 L413,24 L412,25 L412,25 Z M413,36 L413,27 L414,27 L415,27 L424,27 L424,36 L413,36 L413,36 Z" id="Shape"></path>
                </g>
            </g>
        </g>
    </g>
</svg>