<?xml version="1.0" encoding="UTF-8" standalone="no"?>
<svg width="11px" height="11px" viewBox="0 0 11 11" version="1.1" xmlns="http://www.w3.org/2000/svg" xmlns:xlink="http://www.w3.org/1999/xlink" xmlns:sketch="http://www.bohemiancoding.com/sketch/ns">
    <!-- Generator: Sketch 3.3 (11970) - http://www.bohemiancoding.com/sketch -->
    <title>Shape</title>
    <desc>Created with Sketch.</desc>
    <defs></defs>
    <g id="Page-1" stroke="none" stroke-width="1" fill="none" fill-rule="evenodd" sketch:type="MSPage">
        <g id="Desktop-HD" sketch:type="MSArtboardGroup" transform="translate(-11.000000, -54.000000)" fill="#E1C4E7">
            <g id="sidebar" sketch:type="MSLayerGroup" transform="translate(-29.000000, -18.000000)">
                <g id="line" transform="translate(40.000000, 70.000000)" sketch:type="MSShapeGroup">
                    <path d="M2.1127204,11.8847607 C2.87468514,12.4804786 3.80289673,12.8753149 4.80730479,13 L4.80730479,12.2518892 C4.00377834,12.134131 3.26259446,11.8224181 2.64609572,11.3583123 L2.1127204,11.8847607 L2.1127204,11.8847607 Z M6.19269521,13 C7.19710327,12.8753149 8.12531486,12.4804786 8.8872796,11.8847607 L8.35390428,11.3583123 C7.73740554,11.8224181 6.99622166,12.134131 6.19269521,12.2518892 L6.19269521,13 L6.19269521,13 Z M9.88476071,10.8872796 C10.4804786,10.1253149 10.8753149,9.19710327 11,8.19269521 L10.2518892,8.19269521 C10.134131,8.99622166 9.82241814,9.73740554 9.35831234,10.3539043 L9.88476071,10.8872796 L9.88476071,10.8872796 Z M8.8872796,3.10831234 C8.12531486,2.51952141 7.19710327,2.12468514 6.19269521,2 L6.19269521,2.74811083 C6.99622166,2.86586902 7.73740554,3.17758186 8.35390428,3.64168766 L8.8872796,3.10831234 L8.8872796,3.10831234 Z M4.80730479,2 C3.80289673,2.12468514 2.87468514,2.51952141 2.1127204,3.10831234 L2.64609572,3.64168766 C3.26259446,3.17758186 4.00377834,2.86586902 4.80730479,2.74811083 L4.80730479,2 L4.80730479,2 Z M1.11523929,4.1127204 C0.519521411,4.87468514 0.124685139,5.80289673 0,6.80730479 L0.748110831,6.80730479 C0.865869018,6.00377834 1.17758186,5.26259446 1.64168766,4.64609572 L1.11523929,4.1127204 L1.11523929,4.1127204 Z M10.2518892,6.80730479 L11,6.80730479 C10.8753149,5.80289673 10.4804786,4.87468514 9.88476071,4.1127204 L9.35831234,4.64609572 C9.82241814,5.26259446 10.134131,6.00377834 10.2518892,6.80730479 L10.2518892,6.80730479 Z M0.748110831,8.19269521 L0,8.19269521 C0.124685139,9.19710327 0.519521411,10.1253149 1.11523929,10.8872796 L1.64168766,10.3539043 C1.17758186,9.73740554 0.865869018,8.99622166 0.748110831,8.19269521 L0.748110831,8.19269521 Z" id="Shape"></path>
                </g>
            </g>
        </g>
    </g>
</svg>