<?xml version="1.0" encoding="UTF-8" standalone="no"?>
<svg width="15px" height="15px" viewBox="0 0 15 15" version="1.1" xmlns="http://www.w3.org/2000/svg" xmlns:xlink="http://www.w3.org/1999/xlink" xmlns:sketch="http://www.bohemiancoding.com/sketch/ns">
    <!-- Generator: Sketch 3.3 (11970) - http://www.bohemiancoding.com/sketch -->
    <title>icon</title>
    <desc>Created with Sketch.</desc>
    <defs></defs>
    <g id="Page-1" stroke="none" stroke-width="1" fill="none" fill-rule="evenodd" sketch:type="MSPage">
        <g id="Desktop-HD" sketch:type="MSArtboardGroup" transform="translate(-9.000000, -188.000000)" fill="#E1C4E7">
            <g id="sidebar" sketch:type="MSLayerGroup" transform="translate(-3.000000, -18.000000)">
                <g id="line-copy-4" transform="translate(12.000000, 206.000000)" sketch:type="MSShapeGroup">
                    <g id="icon">
                        <path d="M5.59062378,7.85457518 L1.37429487,12.0682942 C0.900441396,12.5440367 0.871429958,13.281923 1.316272,13.7285383 L2.27364944,14.6897323 C2.71849148,15.1266387 3.45344789,15.0975116 3.92730137,14.6314781 L8.15330076,10.4080501 C8.62715424,9.9323076 8.6464952,9.19442132 8.21132364,8.74780594 L8.15330076,8.69926079 L12.4953459,4.35932438 L13.143268,4.56321401 L15,1.85439464 L14.1489978,1 L11.4412637,2.85442473 L11.6346733,3.51463877 L7.30229859,7.84486615 L7.2539462,7.796321 C6.80910416,7.34970562 6.06447726,7.37883271 5.59062378,7.85457518 L5.59062378,7.85457518 Z" id="Shape"></path>
                        <path d="M7.97768312,5.99681571 L8.3986711,5.56411225 L8.20822416,5.3729177 C8.569071,4.00436722 8.2282712,2.4748108 7.16577773,1.34776923 C5.87274323,-0.000655507856 3.9281797,-0.352855999 2.35448654,0.361607854 L4.73006157,2.77669693 C5.0006967,3.05845733 5.01072022,3.50122366 4.74008509,3.77292118 L3.76780333,4.73895681 C3.50719173,5.01065433 3.05613318,5.00059146 2.78549805,4.72889394 L0.359805406,2.35405635 C-0.351864749,3.93392712 -0.0010414331,5.87606125 1.35213421,7.16410876 C2.02371028,7.79806965 2.83561566,8.18045875 3.67759162,8.30121321 L6.17344893,5.81568403 C6.62450747,6.25845036 7.34620115,6.25845036 7.7972597,5.81568403 L7.97768312,5.99681571 L7.97768312,5.99681571 Z M9.26069411,11.9942869 L11.9369748,14.6106334 C12.4982921,15.1540285 13.4204563,15.1238399 13.9917971,14.5502562 L14.5430909,13.9967983 C15.1244552,13.4131518 15.1545258,12.4974305 14.6132556,11.9339097 L11.0148107,8.25089885 L10.6238933,8.64335083 L10.8143402,8.82448251 C10.3632817,9.26724884 10.3632817,10.0018384 10.8143402,10.4446048 L9.26069411,11.9942869 L9.26069411,11.9942869 Z" id="Shape"></path>
                    </g>
                </g>
            </g>
        </g>
    </g>
</svg>