<svg xmlns="http://www.w3.org/2000/svg" xmlns:xlink="http://www.w3.org/1999/xlink" width="99" height="194" viewBox="0 0 99 194"><svg width="23" height="23" viewBox="0 0 23 23" id="addBtn" y="0"><title>add</title><g transform="translate(1 1)" fill="none" fill-rule="evenodd"><circle stroke="#D3D3DB" stroke-width="1.4" fill="#FFF" cx="10.5" cy="10.5" r="10.5"/><g transform="translate(3.5 3.5)" fill="#D3D3DB"><path d="M5.6 0h2.8v14H5.6z"/><path d="M0 5.6h14v2.8H0z"/></g></g></svg>
<svg width="20" height="4" viewBox="0 0 20 4" id="buttonDotts" y="23"><title>Oval 2</title><g fill="#D3D3DB" fill-rule="evenodd"><circle cx="2" cy="2" r="2"/><circle cx="10" cy="2" r="2"/><circle cx="18" cy="2" r="2"/></g></svg>
<svg width="13" height="14" viewBox="0 0 13 14" id="calendarIcon" y="27"><title>Shape</title><path d="M5 1V0H4v2h1V1zM3 1V0H2v2h1V1zm8 0V0h-1v2h1V1zM9 1V0H8v2h1V1zM7 1V0H6v2h1V1zM4 6v1h1v4h1V6H4zm3 0v1h1v4h1V6H7zM0 2v11l1 1h11l1-1V2l-1-1v2H1V1L0 2zm1 11V4h11v9H1z" fill="#8D8D96" fill-rule="evenodd"/></svg>
<svg width="10" height="10" viewBox="0 0 10 10" id="closeBtn10" y="41"><title>Shape Copy 2</title><path d="M0 1.667L3.333 5 0 8.333 1.667 10 5 6.667 8.333 10 10 8.333 6.667 5 10 1.667 8.333 0 5 3.333 1.667 0 0 1.667z" fill="#D3D3DB" fill-rule="evenodd"/></svg>
<svg width="10" height="10" viewBox="0 0 10 10" id="closeButton" y="51"><title>Shape Copy</title><path d="M0 1.667L3.333 5 0 8.333 1.667 10 5 6.667 8.333 10 10 8.333 6.667 5 10 1.667 8.333 0 5 3.333 1.667 0 0 1.667z" fill="#FFF" fill-rule="evenodd"/></svg>
<svg width="17" height="17" viewBox="0 0 17 17" id="deleteBtn" y="61"><title>delete</title><g transform="translate(1 1)" fill="none" fill-rule="evenodd"><circle stroke="#D3D3DB" fill="#FFF" cx="7.5" cy="7.5" r="7.5"/><path d="M3.5 4.833L6.167 7.5 3.5 10.167 4.833 11.5 7.5 8.833l2.667 2.667 1.333-1.333L8.833 7.5 11.5 4.833 10.167 3.5 7.5 6.167 4.833 3.5 3.5 4.833z" fill="#D3D3DB"/></g></svg>
<svg width="12" height="12" viewBox="0 0 12 12" id="editButton" y="78"><title>Shape</title><path d="M1 9l2 2 7-7-2-2-7 7zm10-6l1-1V1l-1-1h-1L9 1l2 2zM1 10l-1 2 2-1-1-1z" fill="#D3D3DB" fill-rule="evenodd"/></svg>
<svg width="10" height="8" viewBox="0 0 10 8" id="fold" y="90"><title>icon</title><g fill="#E1C4E7" fill-rule="evenodd"><path d="M0 4l5 4V0L0 4zM5 4l5 4V0L5 4z"/></g></svg>
<svg width="13" height="15" viewBox="0 0 13 15" id="foldLogo" y="98"><title>e</title><text transform="translate(-235 -9)" font-weight="bold" font-family="Lucida Grande" fill="#FFF" font-size="24" fill-rule="evenodd"><tspan x="235.1" y="23">e</tspan></text></svg>
<svg width="99" height="21" viewBox="0 0 99 21" id="logoTop" y="113"><title>element</title><text transform="translate(-71 -3)" font-weight="bold" font-family="Lucida Grande" fill="#FFF" font-size="24" fill-rule="evenodd"><tspan x="71.1" y="23">element</tspan></text></svg>
<svg width="11" height="11" viewBox="0 0 11 11" id="sidebarExtansion" y="134"><title>Shape</title><path d="M2.113 9.885c.762.595 1.69.99 2.694 1.115v-.748c-.803-.118-1.544-.43-2.16-.894l-.534.527zM6.193 11c1.004-.125 1.932-.52 2.694-1.115l-.533-.527c-.617.464-1.358.776-2.16.894V11zm3.692-2.113c.595-.762.99-1.69 1.115-2.694h-.748c-.118.803-.43 1.544-.894 2.16l.527.534zm-.998-7.78C8.125.52 7.197.126 6.193 0v.748c.803.118 1.544.43 2.16.894l.534-.534zM4.807 0C3.803.125 2.875.52 2.113 1.108l.533.534c.617-.464 1.358-.776 2.16-.894V0zM1.115 2.113C.52 2.875.125 3.803 0 4.807h.748c.118-.803.43-1.544.894-2.16l-.527-.534zm9.137 2.694H11c-.125-1.004-.52-1.932-1.115-2.694l-.527.533c.464.617.776 1.358.894 2.16zM.748 6.193H0c.125 1.004.52 1.932 1.115 2.694l.527-.533c-.464-.617-.776-1.358-.894-2.16z" fill="#E1C4E7" fill-rule="evenodd"/></svg>
<svg width="15" height="15" viewBox="0 0 15 15" id="sidebarSettings" y="145"><title>icon</title><g fill="#E1C4E7" fill-rule="evenodd"><path d="M5.59 7.855l-4.216 4.213c-.474.476-.503 1.214-.058 1.66l.958.962c.444.437 1.18.408 1.653-.06l4.226-4.222c.474-.476.493-1.214.058-1.66l-.057-.05 4.342-4.34.648.205L15 1.853 14.15 1l-2.71 1.854.195.66-4.333 4.33-.048-.048c-.445-.446-1.19-.417-1.663.06z"/><path d="M7.978 5.997l.42-.433-.19-.19c.36-1.37.02-2.9-1.042-4.026-1.293-1.35-3.238-1.7-4.812-.986L4.73 2.777c.27.28.28.724.01.996l-.972.966c-.26.27-.712.26-.983-.01L.36 2.353c-.712 1.58-.36 3.522.992 4.81.672.634 1.484 1.016 2.326 1.137l2.495-2.484c.452.442 1.173.442 1.624 0l.18.18zm1.283 5.997l2.677 2.617c.56.544 1.483.514 2.055-.06l.55-.553c.582-.584.613-1.5.07-2.063L11.016 8.25l-.39.393.19.18c-.452.444-.452 1.18 0 1.622l-1.554 1.55z"/></g></svg>
<svg width="11" height="11" viewBox="0 0 11 11" id="sidebarTable" y="160"><title>icon</title><g fill="#E1C4E7" fill-rule="evenodd"><path d="M0 0h3v3H0zM0 4h3v3H0zM0 8h3v3H0zM4 0h3v3H4zM4 4h3v3H4zM4 8h3v3H4zM8 0h3v3H8zM8 4h3v3H8zM8 8h3v3H8z"/></g></svg>
<svg width="4" height="6" viewBox="0 0 4 6" id="topBreadcrumbArrow" y="171"><title>barr</title><g stroke-linecap="round" stroke="#D3D3DB" stroke-width=".75" fill="none" fill-rule="evenodd"><path d="M.4.375l2.828 2.652M.4 5.625l2.828-2.652"/></g></svg>
<svg width="4" height="4" viewBox="0 0 4 4" id="topUserCircDelim" y="177"><title>Oval 1</title><circle cx="59" cy="8" r="2" transform="translate(-57 -6)" fill="#D3D3DB" fill-rule="evenodd"/></svg>
<svg width="11" height="5" viewBox="0 0 11 5" id="topUserLogOutArr" y="181"><title>arrow</title><g stroke-linecap="square" stroke="#2276A8" fill="none" fill-rule="evenodd"><path d="M.5 2.5h8.042M7.52.48L9.543 2.5" stroke-linejoin="round"/><path d="M7.52 4.52L9.543 2.5"/></g></svg>
<svg width="10" height="8" viewBox="0 0 10 8" id="unfold" y="186"><title>icon</title><g transform="matrix(-1 0 0 1 10 0)" fill="#E1C4E7" fill-rule="evenodd"><path d="M0 4l5 4V0L0 4zM5 4l5 4V0L5 4z"/></g></svg>
</svg>