<svg width="14" height="14" viewBox="0 0 14 14" fill="none" xmlns="http://www.w3.org/2000/svg">
<path d="M1.39288 5.10718C1.0059 5.10718 0.677079 5.24253 0.406191 5.51339C0.135431 5.78415 0 6.11298 0 6.49996C0 6.88676 0.135431 7.21578 0.406293 7.4866C0.677155 7.75736 1.00605 7.89274 1.39298 7.89274C1.77984 7.89274 2.10868 7.75736 2.37957 7.4866C2.65036 7.21581 2.78579 6.88679 2.78579 6.49996C2.78579 6.11298 2.65036 5.78415 2.37949 5.51337C2.10868 5.24261 1.77981 5.10718 1.39288 5.10718Z" fill="#677387" fill-opacity="0.7"/>
<path d="M1.39294 1.39282C1.00596 1.39282 0.677138 1.52825 0.406251 1.79904C0.135492 2.0699 6.10352e-05 2.39872 6.10352e-05 2.78563C6.10352e-05 3.17258 0.135415 3.50143 0.406251 3.77229C0.677112 4.04308 1.00601 4.17846 1.39294 4.17846C1.77979 4.17846 2.10864 4.04305 2.37952 3.77229C2.65031 3.50143 2.78574 3.17256 2.78574 2.78563C2.78574 2.39872 2.65031 2.0699 2.37952 1.79904C2.10876 1.52825 1.77992 1.39282 1.39294 1.39282Z" fill="#677387" fill-opacity="0.7"/>
<path d="M1.39294 8.82153C1.00596 8.82153 0.677036 8.95684 0.406251 9.2276C0.135492 9.49854 6.10352e-05 9.82741 6.10352e-05 10.2142C6.10352e-05 10.6013 0.135415 10.93 0.406251 11.2009C0.677112 11.4717 1.00601 11.6071 1.39294 11.6071C1.77979 11.6071 2.10864 11.4717 2.37952 11.2009C2.65031 10.93 2.78574 10.6013 2.78574 10.2142C2.78574 9.82738 2.65031 9.49836 2.37952 9.2276C2.10876 8.95684 1.77992 8.82153 1.39294 8.82153Z" fill="#677387" fill-opacity="0.7"/>
<path d="M12.9311 1.92596C12.885 1.88014 12.8308 1.85715 12.7678 1.85715H3.94635C3.88351 1.85715 3.82908 1.88007 3.78314 1.92596C3.73723 1.972 3.71423 2.0263 3.71423 2.08916V3.48212C3.71423 3.54501 3.73723 3.59929 3.78314 3.64535C3.82911 3.69122 3.88353 3.71416 3.94635 3.71416H12.7678C12.8308 3.71416 12.8851 3.69129 12.9311 3.64535C12.9771 3.59931 13 3.54501 13 3.48212V2.08919C13 2.02632 12.977 1.97192 12.9311 1.92596Z" fill="#677387" fill-opacity="0.7"/>
<path d="M12.7678 5.57147H3.94635C3.88351 5.57147 3.82908 5.59434 3.78314 5.64038C3.73723 5.6863 3.71423 5.74072 3.71423 5.80359V7.19649C3.71423 7.2593 3.73723 7.3137 3.78314 7.35964C3.82911 7.40571 3.88353 7.4286 3.94635 7.4286H12.7678C12.8308 7.4286 12.8851 7.40574 12.9311 7.35964C12.9771 7.3137 13 7.2593 13 7.19649V5.80359C13 5.74072 12.977 5.68619 12.9311 5.64038C12.885 5.59444 12.8308 5.57147 12.7678 5.57147Z" fill="#677387" fill-opacity="0.7"/>
<path d="M12.7678 9.28568H3.94635C3.88351 9.28568 3.82908 9.30862 3.78314 9.35464C3.73723 9.40063 3.71423 9.45498 3.71423 9.51776V10.9107C3.71423 10.9736 3.73723 11.028 3.78314 11.074C3.82911 11.1199 3.88353 11.1428 3.94635 11.1428H12.7678C12.8308 11.1428 12.8851 11.1199 12.9311 11.074C12.9771 11.028 13 10.9736 13 10.9107V9.51776C13 9.45498 12.977 9.40045 12.9311 9.35464C12.885 9.3088 12.8308 9.28568 12.7678 9.28568Z" fill="#677387" fill-opacity="0.7"/>
</svg>
