<svg width="7" height="13" viewBox="0 0 7 13" fill="none" xmlns="http://www.w3.org/2000/svg">
<path d="M6.78943 7.9145C6.72665 7.7019 6.65047 7.51687 6.561 7.35973C6.47158 7.20245 6.34352 7.04902 6.17655 6.89895C6.00978 6.74896 5.85977 6.62816 5.72674 6.53633C5.5938 6.44442 5.41118 6.34166 5.17898 6.22793C4.94699 6.11422 4.76318 6.02961 4.62787 5.97396C4.49239 5.91839 4.2964 5.84221 4.04004 5.74548C3.81275 5.65847 3.64352 5.59195 3.53217 5.54603C3.42095 5.50007 3.2747 5.43482 3.09332 5.35013C2.91202 5.26556 2.77659 5.19055 2.68709 5.1253C2.59763 5.06005 2.50214 4.98026 2.40055 4.88597C2.29896 4.79167 2.22763 4.6913 2.18649 4.58491C2.14546 4.47849 2.12488 4.3624 2.12488 4.23664C2.12488 3.90784 2.26992 3.63934 2.5601 3.43144C2.8503 3.22353 3.22517 3.11953 3.68466 3.11953C3.88768 3.11953 4.09467 3.1473 4.30491 3.20298C4.51515 3.25865 4.69533 3.32136 4.84528 3.39154C4.99535 3.46172 5.13675 3.53912 5.2698 3.62371C5.40282 3.70838 5.49709 3.77241 5.55276 3.81594C5.60839 3.85949 5.64363 3.88848 5.65799 3.90301C5.72095 3.95137 5.78608 3.96827 5.85379 3.95381C5.92631 3.94898 5.98199 3.91023 6.02076 3.83776L6.60849 2.77858C6.6665 2.6819 6.65451 2.58999 6.57223 2.50289C6.54316 2.47387 6.50703 2.44005 6.4632 2.40132C6.4198 2.3626 6.32545 2.29249 6.18023 2.19088C6.03517 2.08934 5.88162 1.99865 5.71971 1.91884C5.55762 1.83911 5.34717 1.75805 5.0884 1.67587C4.82978 1.59357 4.56249 1.538 4.28674 1.50901V0.232144C4.28674 0.164477 4.26502 0.10883 4.22162 0.0652777C4.17812 0.021827 4.12247 0 4.05465 0H3.0752C3.01234 0 2.95794 0.022945 2.912 0.0689113C2.86606 0.114877 2.84308 0.169254 2.84308 0.232144V1.53798C2.08374 1.68302 1.46709 2.00707 0.993122 2.51005C0.519203 3.01306 0.282155 3.59817 0.282155 4.26566C0.282155 4.46393 0.302788 4.65255 0.343901 4.83141C0.384964 5.01042 0.435783 5.17124 0.496258 5.31389C0.556683 5.45664 0.642568 5.59685 0.753787 5.73473C0.865006 5.87255 0.970228 5.99106 1.06935 6.09016C1.16853 6.18923 1.29791 6.29204 1.45746 6.39841C1.61711 6.50487 1.75374 6.59078 1.86742 6.65603C1.98113 6.72108 2.13224 6.7963 2.32081 6.88073C2.50943 6.96542 2.6582 7.02943 2.76703 7.07306C2.87586 7.11653 3.02456 7.17706 3.21325 7.25428C3.47439 7.35584 3.66789 7.43446 3.79362 7.49011C3.91944 7.54576 4.07899 7.62313 4.27257 7.72228C4.46596 7.82133 4.60737 7.91204 4.69691 7.99429C4.78638 8.07654 4.86736 8.1781 4.93995 8.29898C5.01255 8.41985 5.04891 8.54802 5.04891 8.6835C5.04891 9.06559 4.90019 9.36055 4.60266 9.56835C4.30527 9.77638 3.96056 9.88035 3.56887 9.88035C3.39008 9.88035 3.21099 9.86112 3.03211 9.82245C2.40337 9.69654 1.81577 9.39427 1.26925 8.91549L1.25474 8.90099C1.21119 8.84793 1.15313 8.82613 1.08066 8.83586C1.00326 8.84552 0.947613 8.87456 0.913793 8.92302L0.16654 9.90231C0.0939699 9.99902 0.0988742 10.0981 0.181075 10.1997C0.205291 10.2287 0.247598 10.2724 0.308023 10.3303C0.3686 10.3885 0.481063 10.479 0.645414 10.6026C0.809816 10.726 0.988777 10.8419 1.18227 10.9508C1.37574 11.0596 1.62115 11.1672 1.91865 11.2736C2.21615 11.3799 2.52439 11.4548 2.84362 11.4983V12.7679C2.84362 12.8308 2.86661 12.8852 2.91253 12.9312C2.9585 12.9772 3.01287 13.0001 3.07574 13.0001H4.05518C4.123 13.0001 4.17865 12.9783 4.22213 12.9349C4.2656 12.8914 4.28725 12.8357 4.28725 12.7679V11.4983C5.05638 11.3726 5.68149 11.0425 6.16265 10.5081C6.64386 9.97363 6.88454 9.33643 6.88454 8.59653C6.88429 8.35475 6.85291 8.12744 6.78943 7.9145Z" fill="#677387" fill-opacity="0.7"/>
</svg>
