<svg width="7" height="7" viewBox="0 0 7 7" fill="none" xmlns="http://www.w3.org/2000/svg">
<path d="M0.0807692 3.76925C0.0269231 3.7154 0 3.63463 0 3.58079C0 3.52694 0.0269231 3.44617 0.0807692 3.39232L0.457692 3.0154C0.565385 2.90771 0.726923 2.90771 0.834615 3.0154L0.861539 3.04232L2.34231 4.63079C2.39615 4.68463 2.47692 4.68463 2.53077 4.63079L6.13846 0.888478H6.16538C6.27308 0.780786 6.43462 0.780786 6.54231 0.888478L6.91923 1.2654C7.02692 1.37309 7.02692 1.53463 6.91923 1.64232L2.61154 6.11156C2.55769 6.1654 2.50385 6.19232 2.42308 6.19232C2.34231 6.19232 2.28846 6.1654 2.23462 6.11156L0.134615 3.85002L0.0807692 3.76925Z" fill="white"/>
</svg>
