<svg fill="none" xmlns="http://www.w3.org/2000/svg">
<path d="M0 1.14844C0 0.988932 0.0248012 0.838542 0.0744037 0.697266C0.128515 0.55599 0.205174 0.435221 0.304379 0.334961C0.403584 0.230143 0.525335 0.148112 0.669633 0.0888672C0.818441 0.0296224 0.98754 0 1.17693 0C1.36632 0 1.53317 0.0296224 1.67747 0.0888672C1.82627 0.148112 1.95028 0.230143 2.04948 0.334961C2.1532 0.435221 2.22986 0.55599 2.27946 0.697266C2.33357 0.838542 2.36063 0.988932 2.36063 1.14844C2.36063 1.30794 2.33357 1.45605 2.27946 1.59277C2.22986 1.72493 2.1532 1.84115 2.04948 1.94141C1.95028 2.04167 1.82627 2.11914 1.67747 2.17383C1.53317 2.23307 1.36632 2.2627 1.17693 2.2627C0.98754 2.2627 0.818441 2.23307 0.669633 2.17383C0.525335 2.11914 0.403584 2.04167 0.304379 1.94141C0.205174 1.84115 0.128515 1.72493 0.0744037 1.59277C0.0248012 1.45605 0 1.30794 0 1.14844Z" fill="#191C21" fill-opacity="0.7"/>
<path d="M8.31969 1.14844C8.31969 0.988932 8.34449 0.838542 8.39409 0.697266C8.4482 0.55599 8.52486 0.435221 8.62407 0.334961C8.72327 0.230143 8.84502 0.148112 8.98932 0.0888672C9.13813 0.0296224 9.30723 0 9.49662 0C9.68601 0 9.85285 0.0296224 9.99715 0.0888672C10.146 0.148112 10.27 0.230143 10.3692 0.334961C10.4729 0.435221 10.5495 0.55599 10.5991 0.697266C10.6533 0.838542 10.6803 0.988932 10.6803 1.14844C10.6803 1.30794 10.6533 1.45605 10.5991 1.59277C10.5495 1.72493 10.4729 1.84115 10.3692 1.94141C10.27 2.04167 10.146 2.11914 9.99715 2.17383C9.85285 2.23307 9.68601 2.2627 9.49662 2.2627C9.30723 2.2627 9.13813 2.23307 8.98932 2.17383C8.84502 2.11914 8.72327 2.04167 8.62407 1.94141C8.52486 1.84115 8.4482 1.72493 8.39409 1.59277C8.34449 1.45605 8.31969 1.30794 8.31969 1.14844Z" fill="#191C21" fill-opacity="0.7"/>
<path d="M16.6394 1.14844C16.6394 0.988932 16.6642 0.838542 16.7138 0.697266C16.7679 0.55599 16.8445 0.435221 16.9438 0.334961C17.043 0.230143 17.1647 0.148112 17.309 0.0888672C17.4578 0.0296224 17.6269 0 17.8163 0C18.0057 0 18.1725 0.0296224 18.3168 0.0888672C18.4656 0.148112 18.5897 0.230143 18.6889 0.334961C18.7926 0.435221 18.8692 0.55599 18.9188 0.697266C18.9729 0.838542 19 0.988932 19 1.14844C19 1.30794 18.9729 1.45605 18.9188 1.59277C18.8692 1.72493 18.7926 1.84115 18.6889 1.94141C18.5897 2.04167 18.4656 2.11914 18.3168 2.17383C18.1725 2.23307 18.0057 2.2627 17.8163 2.2627C17.6269 2.2627 17.4578 2.23307 17.309 2.17383C17.1647 2.11914 17.043 2.04167 16.9438 1.94141C16.8445 1.84115 16.7679 1.72493 16.7138 1.59277C16.6642 1.45605 16.6394 1.30794 16.6394 1.14844Z" fill="#191C21" fill-opacity="0.7"/>
</svg>
