<svg width="127" height="25" viewBox="0 0 127 25" fill="none" xmlns="http://www.w3.org/2000/svg">
<path d="M14.0746 14.5405H4.82005V20.8066H15.6812V24.6787H0V1.28535H15.6491V5.18959H4.82005V10.7648H14.0746V14.5405Z" fill="#191C21"/>
<path d="M23.1041 24.6787H18.4447V0H23.1041V24.6787Z" fill="#191C21"/>
<path d="M34.9454 25C32.3961 25 30.3181 24.2181 28.7114 22.6542C27.1155 21.0904 26.3175 19.0071 26.3175 16.4042V15.9544C26.3175 14.2084 26.6549 12.65 27.3297 11.2789C28.0045 9.89717 28.9578 8.83676 30.1896 8.09769C31.4321 7.3479 32.846 6.97301 34.4312 6.97301C36.8091 6.97301 38.6782 7.72279 40.0386 9.22237C41.4096 10.7219 42.0951 12.8481 42.0951 15.6009V17.4968H31.0251C31.175 18.6322 31.6249 19.5426 32.3747 20.2281C33.1352 20.9137 34.0938 21.2564 35.2506 21.2564C37.0394 21.2564 38.4372 20.6084 39.4441 19.3123L41.7256 21.867C41.0293 22.8524 40.0868 23.6236 38.8978 24.1806C37.7089 24.7269 36.3914 25 34.9454 25ZM34.4152 10.7326C33.494 10.7326 32.7442 11.0433 32.1658 11.6645C31.5981 12.2858 31.2339 13.1748 31.0733 14.3316H37.5321V13.9621C37.5107 12.9338 37.2322 12.1412 36.6967 11.5842C36.1611 11.0165 35.4006 10.7326 34.4152 10.7326Z" fill="#191C21"/>
<path d="M49.1003 7.29434L49.2449 9.23843C50.4766 7.72815 52.1422 6.97301 54.2416 6.97301C56.4803 6.97301 58.0174 7.85668 58.8528 9.62404C60.0739 7.85668 61.8145 6.97301 64.0745 6.97301C65.9597 6.97301 67.3629 7.52464 68.2841 8.62789C69.2052 9.72044 69.6658 11.37 69.6658 13.5765V24.6787H65.0064V13.5925C65.0064 12.6071 64.8136 11.8895 64.428 11.4396C64.0424 10.979 63.3623 10.7487 62.3875 10.7487C60.9951 10.7487 60.0311 11.4128 59.4955 12.741L59.5116 24.6787H54.8683V13.6086C54.8683 12.6018 54.6701 11.8734 54.2738 11.4235C53.8775 10.9737 53.2027 10.7487 52.2494 10.7487C50.9319 10.7487 49.9786 11.295 49.3895 12.3875V24.6787H44.7461V7.29434H49.1003Z" fill="#191C21"/>
<path d="M81.25 25C78.7007 25 76.6228 24.2181 75.0161 22.6542C73.4201 21.0904 72.6221 19.0071 72.6221 16.4042V15.9544C72.6221 14.2084 72.9595 12.65 73.6343 11.2789C74.3091 9.89717 75.2624 8.83676 76.4942 8.09769C77.7367 7.3479 79.1506 6.97301 80.7359 6.97301C83.1138 6.97301 84.9829 7.72279 86.3432 9.22237C87.7142 10.7219 88.3997 12.8481 88.3997 15.6009V17.4968H77.3297C77.4796 18.6322 77.9295 19.5426 78.6793 20.2281C79.4398 20.9137 80.3985 21.2564 81.5553 21.2564C83.344 21.2564 84.7419 20.6084 85.7487 19.3123L88.0302 21.867C87.334 22.8524 86.3914 23.6236 85.2024 24.1806C84.0135 24.7269 82.696 25 81.25 25ZM80.7198 10.7326C79.7986 10.7326 79.0488 11.0433 78.4704 11.6645C77.9027 12.2858 77.5386 13.1748 77.3779 14.3316H83.8368V13.9621C83.8153 12.9338 83.5368 12.1412 83.0013 11.5842C82.4657 11.0165 81.7052 10.7326 80.7198 10.7326Z" fill="#191C21"/>
<path d="M95.3245 7.29434L95.4692 9.3027C96.7117 7.74957 98.3772 6.97301 100.466 6.97301C102.308 6.97301 103.679 7.51392 104.579 8.59576C105.479 9.67759 105.939 11.295 105.961 13.4479V24.6787H101.317V13.5604C101.317 12.575 101.103 11.8627 100.675 11.4235C100.246 10.9737 99.5341 10.7487 98.5379 10.7487C97.2311 10.7487 96.2511 11.3057 95.5977 12.4197V24.6787H90.9544V7.29434H95.3245Z" fill="#191C21"/>
<path d="M115.055 3.02057V7.29434H118.027V10.7005H115.055V19.3766C115.055 20.0193 115.178 20.4799 115.424 20.7584C115.671 21.0368 116.142 21.1761 116.838 21.1761C117.352 21.1761 117.807 21.1386 118.204 21.0636V24.5823C117.293 24.8608 116.356 25 115.392 25C112.136 25 110.476 23.3558 110.411 20.0675V10.7005H107.873V7.29434H110.411V3.02057H115.055Z" fill="#191C21"/>
<path d="M120.855 22.3972C120.855 21.6581 121.101 21.0583 121.594 20.5977C122.097 20.1371 122.724 19.9068 123.474 19.9068C124.234 19.9068 124.861 20.1371 125.353 20.5977C125.857 21.0583 126.109 21.6581 126.109 22.3972C126.109 23.1255 125.862 23.72 125.37 24.1806C124.877 24.6305 124.245 24.8554 123.474 24.8554C122.713 24.8554 122.087 24.6305 121.594 24.1806C121.101 23.72 120.855 23.1255 120.855 22.3972Z" fill="#191C21"/>
</svg>