<svg width="13" height="13" viewBox="0 0 13 13" fill="none" xmlns="http://www.w3.org/2000/svg">
<path d="M12.9532 11.8515C12.6616 11.7421 12.3934 11.6719 12.1485 11.6407C11.9037 11.6197 11.7239 11.5599 11.6094 11.461C11.5417 11.4191 11.4505 11.2708 11.3359 11.0155C11.1223 10.5885 10.9531 10.2005 10.8281 9.85154C10.6249 9.29931 10.4555 8.87222 10.3201 8.57012C10.0234 7.87752 9.77335 7.26548 9.57034 6.73424C9.46086 6.44785 9.13808 5.67441 8.60153 4.41391L6.99999 0.664012L6.91401 0.499939H6.50003H5.91406L3.72661 6.15613L1.87504 10.9687C1.72919 11.2395 1.60414 11.4167 1.5 11.5C1.39065 11.5779 1.10415 11.6589 0.640639 11.742C0.338489 11.7995 0.130196 11.8463 0.0156247 11.8827L0 12.5001H0.164073C0.612016 12.5001 1.04694 12.4636 1.46875 12.3907L1.84379 12.3284C3.31782 12.4325 4.22668 12.4846 4.57037 12.4846C4.58079 12.4325 4.58599 12.3621 4.58599 12.2737C4.58599 12.1173 4.58342 11.9664 4.57814 11.8205C4.46879 11.8049 4.36331 11.7892 4.26179 11.7736C4.16024 11.7579 4.08209 11.745 4.02742 11.7345C3.97277 11.7243 3.93755 11.7189 3.92193 11.7189C3.52086 11.6616 3.25261 11.5783 3.11724 11.469C3.0287 11.4066 2.98442 11.2946 2.98442 11.133C2.98442 11.0289 3.04435 10.8103 3.16412 10.4768C3.55479 9.38838 3.82555 8.67473 3.9766 8.3363L7.49237 8.35184L8.21119 10.1331L8.57816 11.0236C8.60947 11.1122 8.62498 11.1955 8.62498 11.2736C8.62498 11.3517 8.59379 11.4221 8.53123 11.4845C8.46871 11.5366 8.29172 11.5965 7.99991 11.6641L6.9764 11.8828C6.95552 12.0548 6.94532 12.2578 6.94532 12.4922L7.39846 12.4765L8.96101 12.3906C9.2526 12.3802 9.60433 12.3749 10.0158 12.3749C10.5156 12.3749 11.0078 12.3958 11.4923 12.4374C12.0755 12.479 12.5755 12.4998 12.9923 12.4998C12.9976 12.4374 13 12.3697 13 12.2967C13 12.2031 12.9844 12.0548 12.9532 11.8515ZM6.87499 7.41398C6.80204 7.41398 6.66533 7.41256 6.46484 7.41004C6.26434 7.4076 5.95453 7.40366 5.53521 7.39841C5.11597 7.39307 4.71622 7.38793 4.33602 7.3827L5.66412 3.8671C5.86727 4.27856 6.10681 4.82803 6.3828 5.51554C6.69543 6.27598 6.93497 6.90362 7.10173 7.39841L6.87499 7.41398Z" fill="#677387" fill-opacity="0.7"/>
</svg>
