<svg width="15" height="15" viewBox="0 0 15 15" fill="none" xmlns="http://www.w3.org/2000/svg">
<g clip-path="url(#clip0)">
<path d="M8.68421 7.89434C8.2477 7.89434 7.89472 8.24778 7.89472 8.68423C7.89472 9.11988 8.24856 9.47372 8.68421 9.47372C9.11985 9.47372 9.47369 9.11988 9.47369 8.68423C9.47374 8.24778 9.12066 7.89434 8.68421 7.89434ZM6.31574 7.10525C6.75159 7.10525 7.10523 6.75162 7.10523 6.31577C7.10523 5.87961 6.75159 5.52638 6.31574 5.52638C5.88 5.52638 5.52636 5.87961 5.52636 6.31577C5.52636 6.75162 5.88 7.10525 6.31574 7.10525ZM8.68421 5.52638C8.2477 5.52638 7.89472 5.87961 7.89472 6.31577C7.89472 6.75162 8.24775 7.10525 8.68421 7.10525C9.11985 7.10525 9.47369 6.75162 9.47369 6.31577C9.47374 5.87961 9.12066 5.52638 8.68421 5.52638ZM9.47374 1.57888H5.52636V3.15786H9.47374V1.57888ZM11.0527 7.10525C11.4882 7.10525 11.8422 6.75162 11.8422 6.31577C11.8422 5.87961 11.489 5.52638 11.0527 5.52638C10.6162 5.52638 10.2632 5.87961 10.2632 6.31577C10.2632 6.75162 10.6171 7.10525 11.0527 7.10525ZM11.0527 9.47372C11.4882 9.47372 11.8422 9.11988 11.8422 8.68423C11.8422 8.24778 11.489 7.89474 11.0527 7.89474C10.6162 7.89474 10.2632 8.24778 10.2632 8.68423C10.2632 9.11988 10.6171 9.47372 11.0527 9.47372ZM6.31574 9.47372C6.75159 9.47372 7.10523 9.11988 7.10523 8.68423C7.10523 8.24778 6.752 7.89434 6.31574 7.89434C5.87959 7.89434 5.52636 8.24778 5.52636 8.68423C5.52636 9.11988 5.88 9.47372 6.31574 9.47372ZM3.94738 11.8422C4.38313 11.8422 4.73687 11.4882 4.73687 11.0528C4.73687 10.6163 4.38313 10.2633 3.94738 10.2633C3.51123 10.2633 3.1579 10.6163 3.1579 11.0528C3.1579 11.4882 3.51159 11.8422 3.94738 11.8422ZM13.421 1.57888H12.6317V3.15786H13.421V13.421H1.57897V3.15791H2.36836V1.57888H1.57897C0.706973 1.57888 0 2.2856 0 3.15791V13.4207C0 14.2932 0.706973 15 1.57897 15H13.4209C14.2931 15 14.9999 14.2931 14.9999 13.4207V3.15791C15 2.2856 14.2931 1.57888 13.421 1.57888ZM3.94738 9.47372C4.38313 9.47372 4.73687 9.11988 4.73687 8.68423C4.73687 8.24778 4.38313 7.89434 3.94738 7.89434C3.51123 7.89434 3.1579 8.24778 3.1579 8.68423C3.1579 9.11988 3.51159 9.47372 3.94738 9.47372ZM3.94738 7.10525C4.38313 7.10525 4.73687 6.75162 4.73687 6.31577C4.73687 5.87961 4.38313 5.52638 3.94738 5.52638C3.51123 5.52638 3.1579 5.87961 3.1579 6.31577C3.1579 6.75162 3.51159 7.10525 3.94738 7.10525ZM6.31574 11.8422C6.75159 11.8422 7.10523 11.4882 7.10523 11.0528C7.10523 10.6163 6.75159 10.2633 6.31574 10.2633C5.88 10.2633 5.52636 10.6163 5.52636 11.0528C5.52636 11.4882 5.88 11.8422 6.31574 11.8422ZM3.94738 3.15791C4.38313 3.15791 4.73687 2.80427 4.73687 2.36842V0.78954C4.73687 0.353236 4.38354 0 3.94738 0C3.51159 0 3.1579 0.353236 3.1579 0.78949V2.36837C3.1579 2.80427 3.51159 3.15791 3.94738 3.15791ZM11.0527 3.15791C11.4882 3.15791 11.8422 2.80427 11.8422 2.36842V0.78954C11.8422 0.353236 11.4882 0 11.0527 0C10.6162 0 10.2632 0.353236 10.2632 0.78949V2.36837C10.2632 2.80427 10.6171 3.15791 11.0527 3.15791Z" fill="#677387" fill-opacity="0.7"/>
</g>
<defs>
<clipPath id="clip0">
<rect width="15" height="15" fill="white"/>
</clipPath>
</defs>
</svg>