<svg width="14" height="14" viewBox="0 0 14 14" fill="none" xmlns="http://www.w3.org/2000/svg">
<path d="M11.9949 8.41741H10.6478C10.5943 8.41741 10.5508 8.37424 10.5508 8.3213V4.59876C10.5508 4.54583 10.5943 4.50265 10.6478 4.50265H11.9949C12.2878 4.50265 12.569 4.3819 12.7663 4.17135C12.9612 3.96316 13.0571 3.69277 13.0361 3.40976C12.9971 2.88131 12.5476 2.4673 12.0129 2.4673H10.6478C10.5943 2.4673 10.5508 2.42413 10.5508 2.37109V1.03562C10.5508 0.74502 10.4291 0.466056 10.2166 0.270486C10.0069 0.0770844 9.73429 -0.0181379 9.44898 0.00285834C8.91602 0.0416964 8.49864 0.487546 8.49864 1.01768V2.37109C8.49864 2.42413 8.45512 2.4673 8.40165 2.4673H4.64891C4.59544 2.4673 4.55192 2.42413 4.55192 2.37109V1.03562C4.55192 0.74502 4.43028 0.466056 4.21801 0.270486C4.00803 0.0770844 3.73574 -0.0181379 3.45013 0.00285834C2.91748 0.0416964 2.5001 0.487546 2.5001 1.01768V2.37109C2.5001 2.42413 2.45657 2.4673 2.40291 2.4673H1.05775C0.764788 2.4673 0.483553 2.58796 0.28639 2.79851C0.0914143 3.0068 -0.00458313 3.27718 0.016584 3.56019C0.0557382 4.08854 0.505217 4.50265 1.03966 4.50265H2.40291C2.45657 4.50265 2.5001 4.54583 2.5001 4.59876V8.3213C2.5001 8.37424 2.45657 8.41741 2.40291 8.41741H1.05775C0.764788 8.41741 0.483553 8.53836 0.28639 8.74891C0.0914143 8.95691 -0.00458313 9.22759 0.016584 9.51059C0.0557382 10.0389 0.505217 10.453 1.03966 10.453H2.40291C2.45657 10.453 2.5001 10.4961 2.5001 10.5492V11.8844C2.5001 12.1752 2.62173 12.4539 2.834 12.6499C3.04398 12.8433 3.31657 12.9382 3.60188 12.9175C4.13454 12.8786 4.55192 12.4327 4.55192 11.9023V10.5492C4.55192 10.4961 4.59544 10.453 4.64891 10.453H8.40165C8.45512 10.453 8.49864 10.4961 8.49864 10.5492V11.8844C8.49864 12.1752 8.62058 12.4542 8.83285 12.6499C9.02365 12.8255 9.26652 12.9203 9.52351 12.9203C9.54905 12.9203 9.57469 12.9192 9.60063 12.9175C10.1334 12.8786 10.5508 12.4327 10.5508 11.9023V10.5492C10.5508 10.4961 10.5943 10.453 10.6478 10.453H12.0129C12.5476 10.453 12.9971 10.0389 13.0361 9.51059C13.0571 9.22759 12.9612 8.95691 12.7663 8.74891C12.569 8.53836 12.2878 8.41741 11.9949 8.41741ZM8.49864 8.3213C8.49864 8.37424 8.45512 8.41741 8.40165 8.41741H4.64891C4.59544 8.41741 4.55192 8.37424 4.55192 8.3213V4.59876C4.55192 4.54583 4.59544 4.50265 4.64891 4.50265H8.40165C8.45512 4.50265 8.49864 4.54583 8.49864 4.59876V8.3213Z" fill="#677387" fill-opacity="0.7"/>
</svg>
