<svg width="14" height="14" viewBox="0 0 14 14" fill="none" xmlns="http://www.w3.org/2000/svg">
<path d="M12.6816 0.641953C12.4695 0.387396 12.2146 0.260132 11.9165 0.260132H1.08333C0.785417 0.260132 0.530457 0.387368 0.318184 0.641953C0.10603 0.896567 0 1.20252 0 1.56004V11.4399C0 11.7975 0.10603 12.1035 0.318184 12.3581C0.530457 12.6126 0.785417 12.7399 1.08333 12.7399H11.9167C12.2146 12.7399 12.4695 12.6126 12.6817 12.3581C12.8938 12.1035 13 11.7975 13 11.4399V1.56004C13 1.20252 12.8938 0.896567 12.6816 0.641953ZM12.1331 11.4399C12.1331 11.5104 12.1118 11.5712 12.0689 11.6228C12.026 11.674 11.9752 11.6997 11.9165 11.6997H1.08333C1.02468 11.6997 0.973881 11.674 0.931004 11.6228C0.888151 11.5712 0.866689 11.5104 0.866689 11.4399V1.55992C0.866689 1.48952 0.88808 1.4287 0.931004 1.37714C0.973904 1.32583 1.0247 1.30007 1.08333 1.30007H11.9167C11.9753 1.30007 12.0261 1.32583 12.0689 1.37714C12.1117 1.4287 12.1331 1.48952 12.1331 1.55992V11.4399Z" fill="#677387" fill-opacity="0.7"/>
<path d="M3.03339 5.46C3.39454 5.46 3.70146 5.3084 3.95426 5.00504C4.207 4.70168 4.3334 4.3334 4.3334 3.90013C4.3334 3.46671 4.20692 3.09844 3.95426 2.79505C3.70146 2.4918 3.39452 2.34012 3.03339 2.34012C2.67228 2.34012 2.36538 2.4918 2.11258 2.79505C1.85987 3.09841 1.73347 3.46669 1.73347 3.90013C1.73347 4.3334 1.8598 4.70176 2.11258 5.00504C2.36538 5.30832 2.67228 5.46 3.03339 5.46Z" fill="#677387" fill-opacity="0.7"/>
<path d="M4.98333 7.79992L3.89998 6.50004L1.73338 9.09994V10.66H11.2666V7.02003L8.45001 3.63998L4.98333 7.79992Z" fill="#677387" fill-opacity="0.7"/>
</svg>
